<svg version="1.1" xmlns="http://www.w3.org/2000/svg" viewBox="0 0 736.935634463709 411.42665250036373" width="736.935634463709" height="411.42665250036373">
  <!-- svg-source:excalidraw -->
  
  <defs>
    <style class="style-fonts">
      @font-face {
        font-family: "Virgil";
        src: url("https://excalidraw.com/Virgil.woff2");
      }
      @font-face {
        font-family: "Cascadia";
        src: url("https://excalidraw.com/Cascadia.woff2");
      }
      @font-face {
        font-family: "Assistant";
        src: url("https://excalidraw.com/Assistant-Regular.woff2");
      }
    </style>
    
  </defs>
  <rect x="0" y="0" width="736.935634463709" height="411.42665250036373" fill="#ffffff"></rect><g stroke-opacity="0.7" fill-opacity="0.7" stroke-linecap="round" transform="translate(10 10) rotate(0 358.4678172318545 195.71332625018186)"><path d="M0 0 C178.86 0, 357.72 0, 716.94 0 M0 0 C221.92 0, 443.84 0, 716.94 0 M716.94 0 C716.94 89.6, 716.94 179.21, 716.94 391.43 M716.94 0 C716.94 118.19, 716.94 236.37, 716.94 391.43 M716.94 391.43 C452.93 391.43, 188.92 391.43, 0 391.43 M716.94 391.43 C488.58 391.43, 260.22 391.43, 0 391.43 M0 391.43 C0 239.09, 0 86.74, 0 0 M0 391.43 C0 290.83, 0 190.24, 0 0" stroke="#1e1e1e" stroke-width="1" fill="none"></path></g><g stroke-opacity="0.9" fill-opacity="0.9" stroke-linecap="round" transform="translate(70.57149989070695 101.19139492179158) rotate(0 83.24023649318474 94.46114727216388)"><path d="M32 0 C59.01 0, 86.03 0, 134.48 0 M32 0 C69.01 0, 106.03 0, 134.48 0 M134.48 0 C155.81 0, 166.48 10.67, 166.48 32 M134.48 0 C155.81 0, 166.48 10.67, 166.48 32 M166.48 32 C166.48 79.69, 166.48 127.37, 166.48 156.92 M166.48 32 C166.48 64.82, 166.48 97.63, 166.48 156.92 M166.48 156.92 C166.48 178.26, 155.81 188.92, 134.48 188.92 M166.48 156.92 C166.48 178.26, 155.81 188.92, 134.48 188.92 M134.48 188.92 C104.24 188.92, 73.99 188.92, 32 188.92 M134.48 188.92 C94.75 188.92, 55.01 188.92, 32 188.92 M32 188.92 C10.67 188.92, 0 178.26, 0 156.92 M32 188.92 C10.67 188.92, 0 178.26, 0 156.92 M0 156.92 C0 114.58, 0 72.23, 0 32 M0 156.92 C0 122.26, 0 87.61, 0 32 M0 32 C0 10.67, 10.67 0, 32 0 M0 32 C0 10.67, 10.67 0, 32 0" stroke="#1e1e1e" stroke-width="1" fill="none"></path></g><g stroke-opacity="0.9" fill-opacity="0.9" transform="translate(170.59998163617638 359.90267926499007) rotate(0 187.5 9.600000000000023)"><text x="0" y="0" font-family="Cascadia, Segoe UI Emoji" font-size="16px" fill="#1e1e1e" text-anchor="start" style="white-space: pre;" direction="ltr" dominant-baseline="text-before-edge">https://fruit-detection-bytes.vercel.app</text></g><g stroke-opacity="0.9" fill-opacity="0.9" stroke-linecap="round" transform="translate(92.9829464469799 134.62488714900815) rotate(0 62.844316193635905 62.05508658080129)"><path d="M7.6 7.93 C7.6 7.93, 7.6 7.93, 7.6 7.93 M7.6 7.93 C7.6 7.93, 7.6 7.93, 7.6 7.93 M1.18 27.52 C7.34 20.43, 13.5 13.34, 24.14 1.11 M1.18 27.52 C9.08 18.42, 16.99 9.33, 24.14 1.11 M0.65 40.32 C7.88 32.01, 15.1 23.7, 35.42 0.32 M0.65 40.32 C13.14 25.95, 25.63 11.58, 35.42 0.32 M0.13 53.11 C17.6 33.02, 35.07 12.92, 46.05 0.28 M0.13 53.11 C12.81 38.52, 25.49 23.94, 46.05 0.28 M0.26 65.15 C19.99 42.46, 39.72 19.77, 56.68 0.25 M0.26 65.15 C15.87 47.2, 31.48 29.24, 56.68 0.25 M0.4 77.19 C23.85 50.21, 47.3 23.23, 67.31 0.21 M0.4 77.19 C25.39 48.44, 50.38 19.69, 67.31 0.21 M0.53 89.24 C18.44 68.63, 36.35 48.02, 77.29 0.93 M0.53 89.24 C28.7 56.83, 56.87 24.42, 77.29 0.93 M1.32 100.52 C19.32 79.81, 37.32 59.1, 87.92 0.9 M1.32 100.52 C18.78 80.43, 36.25 60.34, 87.92 0.9 M3.42 110.3 C40.2 67.99, 76.97 25.69, 98.55 0.87 M3.42 110.3 C34.05 75.06, 64.69 39.82, 98.55 0.87 M8.15 117.06 C40.92 79.35, 73.7 41.64, 107.87 2.34 M8.15 117.06 C31 90.77, 53.85 64.48, 107.87 2.34 M14.84 121.55 C53.37 77.22, 91.9 32.9, 115.22 6.08 M14.84 121.55 C38.6 94.22, 62.36 66.88, 115.22 6.08 M23.5 123.78 C46.57 97.25, 69.63 70.71, 121.25 11.33 M23.5 123.78 C45.73 98.2, 67.97 72.63, 121.25 11.33 M33.47 124.5 C55.97 98.62, 78.47 72.74, 124.67 19.6 M33.47 124.5 C52.55 102.56, 71.62 80.62, 124.67 19.6 M44.1 124.47 C76.87 86.78, 109.63 49.09, 126.11 30.13 M44.1 124.47 C66.35 98.88, 88.59 73.3, 126.11 30.13 M54.73 124.43 C72.13 104.42, 89.53 84.4, 126.25 42.17 M54.73 124.43 C79.09 96.41, 103.44 68.4, 126.25 42.17 M65.37 124.4 C79.77 107.83, 94.17 91.26, 126.38 54.21 M65.37 124.4 C86 100.66, 106.64 76.92, 126.38 54.21 M76 124.36 C90.4 107.79, 104.8 91.22, 125.86 67 M76 124.36 C92.71 105.13, 109.43 85.9, 125.86 67 M86.63 124.33 C98.8 110.32, 110.98 96.31, 125.99 79.05 M86.63 124.33 C98.8 110.32, 110.98 96.31, 125.99 79.05 M97.26 124.29 C107.23 112.82, 117.21 101.34, 126.12 91.09 M97.26 124.29 C105.94 114.3, 114.62 104.31, 126.12 91.09 M110.51 121.24 C115.27 115.76, 120.03 110.29, 124.94 104.64 M110.51 121.24 C115.83 115.12, 121.15 108.99, 124.94 104.64" stroke="#b2f2bb" stroke-width="1" fill="none"></path><path d="M31.03 0 C55.89 0, 80.76 0, 94.66 0 M31.03 0 C48.13 0, 65.24 0, 94.66 0 M94.66 0 C115.35 0, 125.69 10.34, 125.69 31.03 M94.66 0 C115.35 0, 125.69 10.34, 125.69 31.03 M125.69 31.03 C125.69 49.2, 125.69 67.38, 125.69 93.08 M125.69 31.03 C125.69 44.92, 125.69 58.81, 125.69 93.08 M125.69 93.08 C125.69 113.77, 115.35 124.11, 94.66 124.11 M125.69 93.08 C125.69 113.77, 115.35 124.11, 94.66 124.11 M94.66 124.11 C81.42 124.11, 68.19 124.11, 31.03 124.11 M94.66 124.11 C71.84 124.11, 49.01 124.11, 31.03 124.11 M31.03 124.11 C10.34 124.11, 0 113.77, 0 93.08 M31.03 124.11 C10.34 124.11, 0 113.77, 0 93.08 M0 93.08 C0 72.42, 0 51.76, 0 31.03 M0 93.08 C0 70.43, 0 47.77, 0 31.03 M0 31.03 C0 10.34, 10.34 0, 31.03 0 M0 31.03 C0 10.34, 10.34 0, 31.03 0" stroke="#2f9e44" stroke-width="2" fill="none"></path></g><g stroke-opacity="0.9" fill-opacity="0.9" transform="translate(126.53038764061557 184.6799737298095) rotate(0 29.296875 11.999999999999943)"><text x="29.296875" y="0" font-family="Cascadia, Segoe UI Emoji" font-size="20px" fill="#343a40" text-anchor="middle" style="white-space: pre;" direction="ltr" dominant-baseline="text-before-edge">Image</text></g><g stroke-linecap="round"><g stroke-opacity="0.9" fill-opacity="0.9" transform="translate(266.09037191823745 167.85788675101423) rotate(0 112.04307568280774 -0.8291835836135419)"><path d="M0 0 C37.35 -0.28, 186.74 -1.38, 224.09 -1.66 M0 0 C37.35 -0.28, 186.74 -1.38, 224.09 -1.66" stroke="#343a40" stroke-width="2" fill="none"></path></g><g stroke-opacity="0.9" fill-opacity="0.9" transform="translate(266.09037191823745 167.85788675101423) rotate(0 112.04307568280774 -0.8291835836135419)"><path d="M200.66 7.07 C209.71 3.69, 218.77 0.32, 224.09 -1.66 M200.66 7.07 C208.2 4.26, 215.75 1.45, 224.09 -1.66" stroke="#343a40" stroke-width="2" fill="none"></path></g><g stroke-opacity="0.9" fill-opacity="0.9" transform="translate(266.09037191823745 167.85788675101423) rotate(0 112.04307568280774 -0.8291835836135419)"><path d="M200.53 -10.03 C209.64 -6.8, 218.74 -3.56, 224.09 -1.66 M200.53 -10.03 C208.12 -7.34, 215.7 -4.64, 224.09 -1.66" stroke="#343a40" stroke-width="2" fill="none"></path></g></g><mask></mask><g stroke-opacity="0.9" fill-opacity="0.9" transform="translate(348.12134626330226 142.53280993574515) rotate(0 32.8125 9.600000000000023)"><text x="0" y="0" font-family="Cascadia, Segoe UI Emoji" font-size="16px" fill="#343a40" text-anchor="start" style="white-space: pre;" direction="ltr" dominant-baseline="text-before-edge">Request</text></g><g stroke-opacity="0.9" fill-opacity="0.9" transform="translate(349.80128544770787 219.17903270394652) rotate(0 37.5 9.600000000000023)"><text x="0" y="0" font-family="Cascadia, Segoe UI Emoji" font-size="16px" fill="#343a40" text-anchor="start" style="white-space: pre;" direction="ltr" dominant-baseline="text-before-edge">Response</text></g><g stroke-linecap="round"><g stroke-opacity="0.9" fill-opacity="0.9" transform="translate(485.7868211804898 245.93084163385208) rotate(0 -114.18959950842213 0.32196089728302013)"><path d="M0 0 C-38.06 0.11, -190.32 0.54, -228.38 0.64 M0 0 C-38.06 0.11, -190.32 0.54, -228.38 0.64" stroke="#343a40" stroke-width="2" fill="none"></path></g><g stroke-opacity="0.9" fill-opacity="0.9" transform="translate(485.7868211804898 245.93084163385208) rotate(0 -114.18959950842213 0.32196089728302013)"><path d="M-204.91 -7.97 C-210.11 -6.06, -215.31 -4.16, -228.38 0.64 M-204.91 -7.97 C-213.18 -4.94, -221.45 -1.9, -228.38 0.64" stroke="#343a40" stroke-width="2" fill="none"></path></g><g stroke-opacity="0.9" fill-opacity="0.9" transform="translate(485.7868211804898 245.93084163385208) rotate(0 -114.18959950842213 0.32196089728302013)"><path d="M-204.86 9.13 C-210.07 7.25, -215.28 5.37, -228.38 0.64 M-204.86 9.13 C-213.15 6.14, -221.43 3.15, -228.38 0.64" stroke="#343a40" stroke-width="2" fill="none"></path></g></g><mask></mask><g stroke-linecap="round" transform="translate(523.6476855436895 118.23453026722609) rotate(0 66.52870158493806 66.52870158493812)"><path d="M-0.84 -2.84 L132.27 0.19 L131.58 130.55 L1.24 133.34" stroke="none" stroke-width="0" fill="#4c6ef5"></path><path d="M3.23 2.63 C33.04 -2.21, 60.07 -3.37, 130.52 2.69 M-1.3 0.75 C26.54 0.47, 55.55 2.6, 131.8 -0.44 M129.31 1.03 C131.39 45.17, 133.25 92.35, 130.37 133.04 M134.09 -0.61 C134.69 52.02, 135.99 103.79, 134.85 131.69 M136.83 132.06 C100.31 131.85, 66.29 131.37, 0.39 133.11 M131.17 132.39 C99.45 131.92, 64.85 132.56, -0.47 131.42 M-3.93 132.28 C3.24 99.53, 4.76 55.71, 0.93 3.54 M-1 134.07 C-2.35 87.95, -1.99 44.38, 0.38 1.91" stroke="#00000000" stroke-width="1" fill="none"></path></g><g stroke-linecap="round" transform="translate(515.4790317952302 124.04831571266322) rotate(0 66.52870158493806 66.52870158493812)"><path d="M0 0 C0 0, 0 0, 0 0 M0 0 C0 0, 0 0, 0 0 M-0.26 6.4 C1.78 4.05, 3.82 1.7, 4.99 0.36 M-0.26 6.4 C1.46 4.42, 3.18 2.43, 4.99 0.36 M0.13 12.04 C3.48 8.19, 6.83 4.34, 10.63 -0.03 M0.13 12.04 C2.62 9.18, 5.11 6.31, 10.63 -0.03 M-0.13 18.44 C5.96 11.43, 12.06 4.42, 15.62 0.33 M-0.13 18.44 C4.82 12.75, 9.76 7.06, 15.62 0.33 M0.27 24.08 C5.05 18.58, 9.83 13.08, 21.26 -0.07 M0.27 24.08 C7.2 16.1, 14.14 8.12, 21.26 -0.07 M0 30.48 C7.27 22.13, 14.53 13.78, 26.25 0.29 M0 30.48 C5.39 24.29, 10.77 18.09, 26.25 0.29 M-0.26 36.88 C10.2 24.85, 20.66 12.82, 31.89 -0.1 M-0.26 36.88 C10.9 24.04, 22.06 11.21, 31.89 -0.1 M0.14 42.52 C10.35 30.77, 20.57 19.02, 36.88 0.26 M0.14 42.52 C14.81 25.64, 29.49 8.76, 36.88 0.26 M-0.12 48.92 C13.02 33.8, 26.16 18.68, 42.52 -0.14 M-0.12 48.92 C16.23 30.11, 32.57 11.3, 42.52 -0.14 M0.27 54.56 C10.39 42.93, 20.5 31.29, 47.51 0.22 M0.27 54.56 C11.69 41.42, 23.11 28.29, 47.51 0.22 M0.01 60.96 C19.99 37.98, 39.96 15, 53.15 -0.17 M0.01 60.96 C20.35 37.56, 40.7 14.15, 53.15 -0.17 M-0.25 67.36 C17.92 46.46, 36.08 25.56, 58.14 0.19 M-0.25 67.36 C12.83 52.31, 25.91 37.27, 58.14 0.19 M0.14 73 C14.87 56.06, 29.59 39.12, 63.78 -0.21 M0.14 73 C21.5 48.43, 42.86 23.86, 63.78 -0.21 M-0.12 79.4 C27.33 47.82, 54.78 16.25, 68.77 0.15 M-0.12 79.4 C26.38 48.91, 52.88 18.43, 68.77 0.15 M0.28 85.04 C21.07 61.12, 41.86 37.2, 74.41 -0.24 M0.28 85.04 C20.94 61.27, 41.6 37.5, 74.41 -0.24 M0.01 91.44 C24.5 63.27, 48.99 35.1, 79.4 0.12 M0.01 91.44 C24.57 63.19, 49.12 34.94, 79.4 0.12 M-0.25 97.84 C19.56 75.05, 39.37 52.27, 85.04 -0.28 M-0.25 97.84 C25.01 68.78, 50.26 39.73, 85.04 -0.28 M0.15 103.48 C25.03 74.86, 49.91 46.23, 90.03 0.08 M0.15 103.48 C29.84 69.33, 59.52 35.18, 90.03 0.08 M-0.11 109.88 C28.51 76.95, 57.12 44.03, 95.67 -0.31 M-0.11 109.88 C30.4 74.77, 60.92 39.66, 95.67 -0.31 M0.28 115.52 C34.64 76, 68.99 36.48, 100.66 0.05 M0.28 115.52 C33.09 77.78, 65.9 40.03, 100.66 0.05 M0.02 121.92 C42.05 73.57, 84.07 25.23, 106.3 -0.34 M0.02 121.92 C34.44 82.32, 68.87 42.72, 106.3 -0.34 M-0.24 128.32 C38.41 83.85, 77.07 39.38, 111.29 0.02 M-0.24 128.32 C36.02 86.6, 72.29 44.88, 111.29 0.02 M0.81 133.2 C40.13 87.97, 79.46 42.73, 116.27 0.38 M0.81 133.2 C39.67 88.5, 78.52 43.8, 116.27 0.38 M5.8 133.56 C44.67 88.84, 83.55 44.12, 121.92 -0.02 M5.8 133.56 C40.42 93.74, 75.03 53.91, 121.92 -0.02 M11.44 133.17 C40.97 99.2, 70.5 65.23, 126.91 0.34 M11.44 133.17 C37.76 102.89, 64.08 72.61, 126.91 0.34 M16.43 133.53 C57.65 86.11, 98.87 38.69, 132.55 -0.05 M16.43 133.53 C58.89 84.68, 101.36 35.83, 132.55 -0.05 M21.41 133.89 C62.43 86.71, 103.44 39.52, 133.6 4.83 M21.41 133.89 C56.92 93.05, 92.42 52.21, 133.6 4.83 M27.06 133.5 C54.51 101.91, 81.97 70.32, 133.34 11.23 M27.06 133.5 C68.99 85.25, 110.93 37.01, 133.34 11.23 M32.04 133.86 C72.51 87.3, 112.97 40.75, 133.73 16.88 M32.04 133.86 C69.39 90.89, 106.74 47.93, 133.73 16.88 M37.69 133.46 C66.35 100.49, 95.01 67.51, 133.47 23.27 M37.69 133.46 C75.85 89.56, 114.01 45.66, 133.47 23.27 M42.67 133.82 C77.41 93.86, 112.14 53.91, 133.21 29.67 M42.67 133.82 C78.2 92.95, 113.72 52.08, 133.21 29.67 M48.32 133.43 C76.9 100.54, 105.49 67.66, 133.6 35.31 M48.32 133.43 C77.12 100.29, 105.92 67.16, 133.6 35.31 M53.3 133.79 C73.86 110.14, 94.41 86.5, 133.34 41.71 M53.3 133.79 C73.38 110.69, 93.45 87.6, 133.34 41.71 M58.95 133.39 C75.9 113.89, 92.85 94.38, 133.74 47.35 M58.95 133.39 C82.87 105.88, 106.78 78.36, 133.74 47.35 M63.93 133.75 C81.63 113.39, 99.33 93.03, 133.48 53.75 M63.93 133.75 C81.2 113.89, 98.47 94.02, 133.48 53.75 M69.58 133.36 C84.69 115.97, 99.81 98.58, 133.21 60.15 M69.58 133.36 C94.97 104.15, 120.36 74.94, 133.21 60.15 M74.56 133.72 C93.28 112.18, 112.01 90.65, 133.61 65.79 M74.56 133.72 C94.5 110.79, 114.43 87.86, 133.61 65.79 M80.21 133.32 C92.67 118.98, 105.13 104.65, 133.35 72.19 M80.21 133.32 C100.21 110.31, 120.21 87.31, 133.35 72.19 M85.19 133.68 C99.17 117.6, 113.15 101.53, 133.74 77.83 M85.19 133.68 C100.64 115.91, 116.09 98.14, 133.74 77.83 M90.84 133.29 C103.1 119.17, 115.37 105.06, 133.48 84.23 M90.84 133.29 C107.89 113.67, 124.95 94.05, 133.48 84.23 M95.82 133.65 C107.55 120.16, 119.27 106.67, 133.22 90.63 M95.82 133.65 C104.67 123.47, 113.51 113.3, 133.22 90.63 M101.47 133.25 C110.15 123.27, 118.83 113.28, 133.61 96.27 M101.47 133.25 C113.19 119.77, 124.91 106.29, 133.61 96.27 M106.45 133.61 C113.01 126.08, 119.56 118.54, 133.35 102.67 M106.45 133.61 C116.84 121.67, 127.22 109.73, 133.35 102.67 M112.1 133.22 C117.68 126.8, 123.27 120.37, 133.75 108.31 M112.1 133.22 C118.85 125.45, 125.61 117.68, 133.75 108.31 M117.08 133.58 C120.87 129.22, 124.66 124.87, 133.48 114.71 M117.08 133.58 C122.11 127.79, 127.14 122.01, 133.48 114.71 M122.73 133.18 C126.2 129.19, 129.67 125.2, 133.22 121.11 M122.73 133.18 C125.15 130.4, 127.57 127.61, 133.22 121.11 M127.71 133.54 C129.67 131.29, 131.63 129.04, 133.62 126.75 M127.71 133.54 C129.99 130.92, 132.27 128.3, 133.62 126.75" stroke="#4c6ef5" stroke-width="0.5" fill="none"></path><path d="M0 0 C40.76 0, 81.52 0, 133.06 0 M0 0 C31.49 0, 62.99 0, 133.06 0 M133.06 0 C133.06 27.03, 133.06 54.06, 133.06 133.06 M133.06 0 C133.06 28.56, 133.06 57.12, 133.06 133.06 M133.06 133.06 C80.25 133.06, 27.43 133.06, 0 133.06 M133.06 133.06 C97.18 133.06, 61.3 133.06, 0 133.06 M0 133.06 C0 97.74, 0 62.43, 0 0 M0 133.06 C0 80.3, 0 27.54, 0 0" stroke="#000000" stroke-width="1" fill="none"></path></g><g stroke-linecap="round" transform="translate(530.245101699827 154.40767527227297) rotate(0 31.17402279454018 14.22645472118802)"><path d="M62.35 14.23 C62.35 15.05, 62.19 15.89, 61.87 16.7 C61.56 17.51, 61.09 18.32, 60.47 19.09 C59.85 19.87, 59.07 20.63, 58.17 21.34 C57.27 22.05, 56.21 22.74, 55.05 23.37 C53.89 24, 52.59 24.6, 51.21 25.12 C49.83 25.65, 48.32 26.14, 46.76 26.55 C45.2 26.96, 43.53 27.31, 41.84 27.59 C40.14 27.88, 38.36 28.09, 36.59 28.24 C34.81 28.38, 32.98 28.45, 31.17 28.45 C29.37 28.45, 27.54 28.38, 25.76 28.24 C23.98 28.09, 22.21 27.88, 20.51 27.59 C18.82 27.31, 17.15 26.96, 15.59 26.55 C14.02 26.14, 12.52 25.65, 11.14 25.12 C9.75 24.6, 8.45 24, 7.29 23.37 C6.13 22.74, 5.08 22.05, 4.18 21.34 C3.27 20.63, 2.5 19.87, 1.88 19.09 C1.26 18.32, 0.79 17.51, 0.47 16.7 C0.16 15.89, 0 15.05, 0 14.23 C0 13.4, 0.16 12.57, 0.47 11.76 C0.79 10.95, 1.26 10.13, 1.88 9.36 C2.5 8.59, 3.27 7.83, 4.18 7.11 C5.08 6.4, 6.13 5.71, 7.29 5.08 C8.45 4.45, 9.75 3.86, 11.14 3.33 C12.52 2.8, 14.02 2.32, 15.59 1.91 C17.15 1.49, 18.82 1.14, 20.51 0.86 C22.21 0.58, 23.98 0.36, 25.76 0.22 C27.54 0.07, 29.37 0, 31.17 0 C32.98 0, 34.81 0.07, 36.59 0.22 C38.36 0.36, 40.14 0.58, 41.84 0.86 C43.53 1.14, 45.2 1.49, 46.76 1.91 C48.32 2.32, 49.83 2.8, 51.21 3.33 C52.59 3.86, 53.89 4.45, 55.05 5.08 C56.21 5.71, 57.27 6.4, 58.17 7.11 C59.07 7.83, 59.85 8.59, 60.47 9.36 C61.09 10.13, 61.56 10.95, 61.87 11.76 C62.19 12.57, 62.27 13.81, 62.35 14.23 C62.43 14.64, 62.43 13.81, 62.35 14.23" stroke="#ffffff" stroke-width="2" fill="none"></path></g><g stroke-linecap="round"><g transform="translate(530.245101699827 168.04149810227602) rotate(0 0 25.07470199263969)"><path d="M0 0 C0 8.36, 0 41.79, 0 50.15 M0 0 C0 8.36, 0 41.79, 0 50.15" stroke="#ffffff" stroke-width="2" fill="none"></path></g></g><mask></mask><g stroke-linecap="round"><g transform="translate(592.8862319289783 168.34662367001658) rotate(0 0 13.792821623979876)"><path d="M0 0 C0 4.6, 0 22.99, 0 27.59 M0 0 C0 4.6, 0 22.99, 0 27.59" stroke="#ffffff" stroke-width="2" fill="none"></path></g></g><mask></mask><g stroke-linecap="round"><g transform="translate(529.9972449704887 218.76946374086344) rotate(0 31.278480355640568 5.8780495458472615)"><path d="M0 0 C0.43 0.69, 0.99 2.75, 2.57 4.13 C4.14 5.51, 6.41 7.13, 9.45 8.29 C12.48 9.45, 17.25 10.51, 20.79 11.08 C24.33 11.66, 27.5 11.73, 30.67 11.76 C33.84 11.78, 36.43 11.71, 39.82 11.24 C43.21 10.78, 47.74 10.06, 51.02 8.98 C54.29 7.9, 57.54 6.14, 59.46 4.76 C61.38 3.38, 62.04 1.37, 62.56 0.7 M0 0 C0.43 0.69, 0.99 2.75, 2.57 4.13 C4.14 5.51, 6.41 7.13, 9.45 8.29 C12.48 9.45, 17.25 10.51, 20.79 11.08 C24.33 11.66, 27.5 11.73, 30.67 11.76 C33.84 11.78, 36.43 11.71, 39.82 11.24 C43.21 10.78, 47.74 10.06, 51.02 8.98 C54.29 7.9, 57.54 6.14, 59.46 4.76 C61.38 3.38, 62.04 1.37, 62.56 0.7" stroke="#ffffff" stroke-width="2" fill="none"></path></g></g><mask></mask><g stroke-linecap="round"><g transform="translate(530.1607074016356 202.50687756340164) rotate(0 28.393081558838503 5.903860515893939)"><path d="M0 0 C0.43 0.69, 1 2.76, 2.58 4.15 C4.16 5.54, 6.44 7.16, 9.49 8.33 C12.54 9.49, 17.33 10.55, 20.88 11.13 C24.43 11.71, 27.62 11.78, 30.81 11.81 C33.99 11.83, 37.02 11.65, 40 11.29 C42.98 10.94, 46.39 10.18, 48.68 9.66 C50.98 9.15, 52.4 8.69, 53.75 8.21 C55.1 7.74, 56.28 7.06, 56.79 6.83 M0 0 C0.43 0.69, 1 2.76, 2.58 4.15 C4.16 5.54, 6.44 7.16, 9.49 8.33 C12.54 9.49, 17.33 10.55, 20.88 11.13 C24.43 11.71, 27.62 11.78, 30.81 11.81 C33.99 11.83, 37.02 11.65, 40 11.29 C42.98 10.94, 46.39 10.18, 48.68 9.66 C50.98 9.15, 52.4 8.69, 53.75 8.21 C55.1 7.74, 56.28 7.06, 56.79 6.83" stroke="#ffffff" stroke-width="2" fill="none"></path></g></g><mask></mask><g stroke-linecap="round"><g transform="translate(529.9490674427666 186.12962133323902) rotate(0 31.486756557044828 5.917190124838157)"><path d="M0 0 C0.43 0.69, 1 2.77, 2.59 4.16 C4.17 5.55, 6.45 7.18, 9.51 8.34 C12.57 9.51, 17.37 10.58, 20.93 11.16 C24.49 11.74, 27.68 11.81, 30.88 11.83 C34.07 11.86, 36.68 11.79, 40.09 11.32 C43.5 10.85, 48.06 10.13, 51.36 9.04 C54.65 7.95, 57.92 6.18, 59.86 4.79 C61.79 3.4, 62.45 1.38, 62.97 0.7 M0 0 C0.43 0.69, 1 2.77, 2.59 4.16 C4.17 5.55, 6.45 7.18, 9.51 8.34 C12.57 9.51, 17.37 10.58, 20.93 11.16 C24.49 11.74, 27.68 11.81, 30.88 11.83 C34.07 11.86, 36.68 11.79, 40.09 11.32 C43.5 10.85, 48.06 10.13, 51.36 9.04 C54.65 7.95, 57.92 6.18, 59.86 4.79 C61.79 3.4, 62.45 1.38, 62.97 0.7" stroke="#ffffff" stroke-width="2" fill="none"></path></g></g><mask></mask><g stroke-linecap="round"><g transform="translate(592.8862319289783 211.41626966874594) rotate(0 0 3.5398789932750105)"><path d="M0 0 C0 1.18, 0 5.9, 0 7.08 M0 0 C0 1.18, 0 5.9, 0 7.08" stroke="#ffffff" stroke-width="2" fill="none"></path></g></g><mask></mask><g stroke-linecap="round"><g transform="translate(597.458137501776 143.21123416152852) rotate(0 0 5.8848584396271235)"><path d="M0 0 C0 2.79, 0 5.58, 0 11.77 M0 0 C0 3.71, 0 7.42, 0 11.77" stroke="#ffffff" stroke-width="2" fill="none"></path></g></g><mask></mask><g stroke-linecap="round"><g transform="translate(603.0336086410643 149.09609260115553) rotate(0 -5.575471139288766 0)"><path d="M0 0 C-3.71 0, -7.41 0, -11.15 0 M0 0 C-4.03 0, -8.07 0, -11.15 0" stroke="#ffffff" stroke-width="2" fill="none"></path></g></g><mask></mask><g stroke-linecap="round"><g transform="translate(621.5602979133669 162.11184577342988) rotate(0 0 5.8848584396271235)"><path d="M0 0 C0 2.44, 0 4.87, 0 11.77 M0 0 C0 2.74, 0 5.48, 0 11.77" stroke="#ffffff" stroke-width="2" fill="none"></path></g></g><mask></mask><g stroke-linecap="round"><g transform="translate(627.1357690526552 167.9967042130569) rotate(0 -5.575471139288766 0)"><path d="M0 0 C-3.63 0, -7.27 0, -11.15 0 M0 0 C-4.31 0, -8.62 0, -11.15 0" stroke="#ffffff" stroke-width="2" fill="none"></path></g></g><mask></mask><g stroke-linecap="round"><g transform="translate(611.5394846088398 176.25724540992894) rotate(0 -0.17929028923458645 26.231028753223143)" fill-rule="evenodd"><path d="M-26.7 25.82 C-26.7 25.82, -26.7 25.82, -26.7 25.82 M-26.7 25.82 C-26.7 25.82, -26.7 25.82, -26.7 25.82 M-17.38 27.29 C-15.8 25.48, -14.22 23.66, -12.79 22.01 M-17.38 27.29 C-16.46 26.23, -15.54 25.17, -12.79 22.01 M-0.98 8.42 C-0.45 7.81, 0.09 7.2, 0.99 6.16 M-0.98 8.42 C-0.55 7.93, -0.12 7.43, 0.99 6.16 M-10.69 31.79 C-5.05 25.3, 0.59 18.81, 4.4 14.43 M-10.69 31.79 C-4.65 24.85, 1.38 17.9, 4.4 14.43 M-5.3 37.79 C-2.22 34.24, 0.86 30.7, 9.78 20.43 M-5.3 37.79 C-0.25 31.97, 4.81 26.15, 9.78 20.43 M-1.24 45.3 C0.96 42.78, 3.15 40.25, 7.95 34.74 M-1.24 45.3 C0.97 42.76, 3.18 40.22, 7.95 34.74 M7.95 34.74 C10.11 32.25, 12.28 29.76, 17.13 24.17 M7.95 34.74 C10.66 31.62, 13.37 28.5, 17.13 24.17 M25.14 27.15 C25.4 26.86, 25.65 26.56, 25.8 26.4 M25.14 27.15 C25.4 26.86, 25.65 26.57, 25.8 26.4" stroke="#eb3b4000" stroke-width="1" fill="none"></path><path d="M0 0 C-0.34 1.61, -0.67 6.55, -2.02 9.68 C-3.36 12.82, -5.76 16.4, -8.07 18.78 C-10.38 21.17, -12.93 22.77, -15.87 24 C-18.8 25.24, -24.01 25.82, -25.69 26.17 C-27.37 26.53, -27.44 25.84, -25.95 26.11 C-24.46 26.38, -19.73 26.52, -16.74 27.8 C-13.75 29.07, -10.29 31.63, -8 33.75 C-5.71 35.88, -4.3 37.47, -2.99 40.54 C-1.68 43.61, -0.64 50.27, -0.13 52.19 C0.38 54.12, 0.03 52.08, 0.05 52.1 C0.07 52.13, -0.06 52.29, -0.03 52.35 C0.01 52.42, -0.32 54.43, 0.27 52.48 C0.85 50.53, 2.22 43.7, 3.48 40.66 C4.73 37.61, 6.1 36.04, 7.77 34.23 C9.45 32.41, 10.63 31.01, 13.53 29.77 C16.42 28.52, 23.15 27.26, 25.12 26.74 C27.09 26.22, 25.26 26.67, 25.34 26.64 C25.42 26.6, 27.52 27.11, 25.59 26.55 C23.66 25.99, 16.91 24.73, 13.78 23.29 C10.65 21.84, 8.79 20.12, 6.8 17.9 C4.81 15.68, 3.01 12.93, 1.84 9.96 C0.68 6.99, 0.17 1.74, -0.19 0.08 C-0.54 -1.59, -0.31 -0.01, -0.27 -0.02 C-0.24 -0.03, -0.05 0, 0 0 M0 0 C-0.34 1.61, -0.67 6.55, -2.02 9.68 C-3.36 12.82, -5.76 16.4, -8.07 18.78 C-10.38 21.17, -12.93 22.77, -15.87 24 C-18.8 25.24, -24.01 25.82, -25.69 26.17 C-27.37 26.53, -27.44 25.84, -25.95 26.11 C-24.46 26.38, -19.73 26.52, -16.74 27.8 C-13.75 29.07, -10.29 31.63, -8 33.75 C-5.71 35.88, -4.3 37.47, -2.99 40.54 C-1.68 43.61, -0.64 50.27, -0.13 52.19 C0.38 54.12, 0.03 52.08, 0.05 52.1 C0.07 52.13, -0.06 52.29, -0.03 52.35 C0.01 52.42, -0.32 54.43, 0.27 52.48 C0.85 50.53, 2.22 43.7, 3.48 40.66 C4.73 37.61, 6.1 36.04, 7.77 34.23 C9.45 32.41, 10.63 31.01, 13.53 29.77 C16.42 28.52, 23.15 27.26, 25.12 26.74 C27.09 26.22, 25.26 26.67, 25.34 26.64 C25.42 26.6, 27.52 27.11, 25.59 26.55 C23.66 25.99, 16.91 24.73, 13.78 23.29 C10.65 21.84, 8.79 20.12, 6.8 17.9 C4.81 15.68, 3.01 12.93, 1.84 9.96 C0.68 6.99, 0.17 1.74, -0.19 0.08 C-0.54 -1.59, -0.31 -0.01, -0.27 -0.02 C-0.24 -0.03, -0.05 0, 0 0" stroke="#ffffff" stroke-width="2" fill="none"></path></g></g><mask></mask><g stroke-opacity="0.9" fill-opacity="0.9" transform="translate(513.4633849977049 274.74908995900125) rotate(0 70.3125 12)"><text x="0" y="0" font-family="Cascadia, Segoe UI Emoji" font-size="20px" fill="#343a40" text-anchor="start" style="white-space: pre;" direction="ltr" dominant-baseline="text-before-edge"> Fruit Model</text></g><g stroke-opacity="0.9" fill-opacity="0.9" transform="translate(32.284799306924924 21.48648101516767) rotate(0 99.609375 12)"><text x="0" y="0" font-family="Cascadia, Segoe UI Emoji" font-size="20px" fill="#1971c2" text-anchor="start" style="white-space: pre;" direction="ltr" dominant-baseline="text-before-edge">Team : Bytes-babe</text></g></svg>