<svg viewBox="0 0 72 72" xmlns="http://www.w3.org/2000/svg"><path d="m11.6115 35.8384c0 6.83 4.4417 16.27 9.8122 21.4266 2.3817 2.29 4.947 3.735 7.3891 3.735a15.5438 15.5438 0 0 0 4.4076-.6478 9.5833 9.5833 0 0 1 5.5593 0 15.542 15.542 0 0 0 4.4075.6478c2.5584 0 5.2539-1.5874 7.7316-4.0706 5.2156-5.2224 9.47-14.4073 9.47-21.0911 0-9.8613-5.8991-15.8193-11.4461-17.2574a17.099 17.099 0 0 0 -8.23.4027 18.6582 18.6582 0 0 1 -7.8589.3369q-.789-.1354-1.5655-.3369a17.0983 17.0983 0 0 0 -8.23-.4027c-5.5478 1.4382-11.4468 7.3962-11.4468 17.2575z" fill="#ea5a47"/><path d="m21.4239 57.2644a37.7243 37.7243 0 0 0 15.4918-.0844 15.4515 15.4515 0 0 0 11.6665-13.16c1.94-15.9775-8.5-20.6292-8.5-20.6292a11.6769 11.6769 0 0 1 -6.5.6478c2.1956-2.1941-.7286-4.7184-.7286-4.7184a18.6583 18.6583 0 0 0 7.8589-.3369 17.0991 17.0991 0 0 1 8.23-.4027c5.5472 1.4382 11.4462 7.3962 11.4462 17.2575s-9.2577 25.1619-17.2015 25.1619a15.5438 15.5438 0 0 1 -4.4076-.6478 9.5833 9.5833 0 0 0 -5.5593 0 15.5433 15.5433 0 0 1 -4.4076.6478c-2.442 0-5.0073-1.445-7.3892-3.735z" fill="#d22f27"/><path d="m29.993 22.6873c0 1.1218 1.7614 2.0559 4.0993 2.2681.3259.03.6629.0452 1.008.0452.36 0 .7108-.0164 1.0492-.0479 2.3161-.2205 4.0568-1.1505 4.0568-2.2654z" fill="#d22f27"/><path d="m33.1484 19.1786c-2.7478 3.03-10.9362 2.9086-13.48-6.7627a7.6188 7.6188 0 0 0 4.4647-.7172c3.8825-2.003 10.1429.3772 11.6335 6.1578a4.2966 4.2966 0 0 0 -2.6183 1.3221" fill="#b1cc33"/><path d="m23.0578 18.5809c-5.5473 1.4382-11.4463 7.3962-11.4463 17.2575 0 6.83 4.4417 16.27 9.8122 21.4266 2.3817 2.29 4.947 3.735 7.3891 3.735a15.5438 15.5438 0 0 0 4.4076-.6478 9.5833 9.5833 0 0 1 5.5593 0 15.542 15.542 0 0 0 4.4075.6478c2.5584 0 5.2539-1.5874 7.7316-4.0706 5.2156-5.2224 9.47-14.4073 9.47-21.0911 0-9.8613-5.8991-15.8193-11.4461-17.2574a17.099 17.099 0 0 0 -8.23.4027 18.6582 18.6582 0 0 1 -7.8589.3369q-.0812-.0139-.1622-.0286" fill="none" stroke="#000" stroke-miterlimit="10" stroke-width="1.798"/><path d="m23.0578 18.5809c-5.5473 1.4382-11.4463 7.3962-11.4463 17.2575 0 6.83 4.4417 16.27 9.8122 21.4266 2.3817 2.29 4.947 3.735 7.3891 3.735a15.5438 15.5438 0 0 0 4.4076-.6478 9.5833 9.5833 0 0 1 5.5593 0 15.542 15.542 0 0 0 4.4075.6478c2.5584 0 5.2539-1.5874 7.7316-4.0706 5.2156-5.2224 9.47-14.4073 9.47-21.0911 0-9.8613-5.8991-15.8193-11.4461-17.2574a17.099 17.099 0 0 0 -8.23.4027 18.6582 18.6582 0 0 1 -7.8589.3369" fill="none" stroke="#000" stroke-miterlimit="10" stroke-width="1.798"/><path d="m34.95 18.9056a31.2788 31.2788 0 0 0 -.6807 3.7816c-.0863.7328-.1479 1.49-.1767 2.2681.3259.03.6629.0452 1.008.0452.36 0 .7108-.0164 1.0492-.0479.03-.7779.0972-1.534.189-2.2654a29.9339 29.9339 0 0 1 2.7475-9.2793 1.0275 1.0275 0 0 0 -1.8147-.9641 27.1067 27.1067 0 0 0 -1.5765 3.8583"/><path d="m19 12.4159a8.2358 8.2358 0 0 0 4.65-.7172c4.0437-2.003 10.5641.3772 12.1166 6.1578a4.5612 4.5612 0 0 0 -2.7266 1.3221c-2.8622 3.0303-11.3907 2.9086-14.04-6.7627z" fill="none" stroke="#000" stroke-miterlimit="10" stroke-width="1.5536"/></svg>